<svg aria-hidden="true" xmlns="http://www.w3.org/2000/svg" xmlns:xlink="http://www.w3.org/1999/xlink"><symbol viewBox="0 0 2000.000000 338.000000" preserveAspectRatio="xMidYMid meet" id="ABCDEX" xmlns="http://www.w3.org/2000/svg">
<metadata>
Created by potrace 1.16, written by Peter Selinger 2001-2019
</metadata>
<g transform="translate(0.000000,338.000000) scale(0.100000,-0.100000)">
</g>
</symbol><symbol viewBox="0 0 16 11" id="array" xmlns="http://www.w3.org/2000/svg">
<path d="M7.1748 10.1997L0.53418 3.55908C0.0751953 3.1001 0.0751953 2.35791 0.53418 1.90381L1.6377 0.800293C2.09668 0.341309 2.83887 0.341309 3.29297 0.800293L8 5.50733L12.707 0.800293C13.166 0.341309 13.9082 0.341309 14.3623 0.800293L15.4658 1.90381C15.9248 2.36279 15.9248 3.10498 15.4658 3.55908L8.8252 10.1997C8.37598 10.6587 7.63379 10.6587 7.1748 10.1997Z" fill-opacity="0.5"/>
</symbol><symbol viewBox="0 0 24 18" id="folder" xmlns="http://www.w3.org/2000/svg">
<path d="M21.75 3H12.75L9.75 0H2.25C1.00734 0 0 1.00734 0 2.25V15.75C0 16.9927 1.00734 18 2.25 18H21.75C22.9927 18 24 16.9927 24 15.75V5.25C24 4.00734 22.9927 3 21.75 3Z"/>
</symbol><symbol viewBox="0 0 21 20" id="gmail" xmlns="http://www.w3.org/2000/svg">
<path d="M20.3387 10.2339C20.3387 15.9395 16.4314 20 10.6613 20C5.12903 20 0.661285 15.5323 0.661285 10C0.661285 4.46774 5.12903 0 10.6613 0C13.3548 0 15.621 0.987903 17.3669 2.61694L14.6452 5.23387C11.0847 1.79839 4.4637 4.37903 4.4637 10C4.4637 13.4879 7.24999 16.3145 10.6613 16.3145C14.621 16.3145 16.1048 13.4758 16.3387 12.004H10.6613V8.56452H20.1814C20.2742 9.07661 20.3387 9.56855 20.3387 10.2339Z"/>
</symbol><symbol viewBox="0 0 20 18" id="info" xmlns="http://www.w3.org/2000/svg">
<path d="M18.5554 10.125H10.2131L15.7689 15.6808C15.9812 15.8931 16.3307 15.9104 16.549 15.7047C17.9096 14.4229 18.8454 12.6949 19.12 10.7525C19.1671 10.4199 18.8911 10.125 18.5554 10.125ZM17.9989 7.84683C17.7092 3.64701 14.3531 0.290962 10.1533 0.00127127C9.83268 -0.0208774 9.56268 0.249477 9.56268 0.570809V8.43746H17.4297C17.751 8.43746 18.021 8.16745 17.9989 7.84683ZM7.87516 10.125V1.78266C7.87516 1.44691 7.5802 1.17093 7.24797 1.21804C3.05835 1.81008 -0.144065 5.47024 0.00499877 9.85673C0.158282 14.3617 4.03711 18.056 8.54419 17.9994C10.3161 17.9772 11.9533 17.4063 13.2995 16.4514C13.5772 16.2545 13.5955 15.8457 13.3547 15.6048L7.87516 10.125Z"/>
</symbol><symbol viewBox="0 0 21 16" id="mail" xmlns="http://www.w3.org/2000/svg">
<path d="M4.50812 7.43199V1.22998L10.5051 5.72775L16.5022 1.22998V7.43199L10.5051 11.9298L4.50812 7.43199Z"/>
<path d="M4.50815 7.43192L0.010376 4.05859V14.569C0.010376 15.3616 0.652636 15.9999 1.44131 15.9999H4.50815V7.43192Z"/>
<path d="M4.50815 1.23019L3.44422 0.433711C2.02891 -0.628263 0.010376 0.381003 0.010376 2.14966V4.05887L4.50815 7.4322V1.23019Z"/>
<path d="M16.5022 7.43192V15.9999H19.569C20.3616 15.9999 21 15.3577 21 14.569V4.05859L16.5022 7.43192Z"/>
<path d="M17.5661 0.433711L16.5022 1.23019V7.4322L21 4.05887V2.14966C21 0.381003 18.9795 -0.628263 17.5661 0.433711Z"/>
</symbol><symbol viewBox="0 0 23 18" id="menu" xmlns="http://www.w3.org/2000/svg">
<path d="M2.77565 0C2.36488 0 1.96333 0.121809 1.62178 0.350025C1.28023 0.57824 1.01403 0.902611 0.856828 1.28212C0.69963 1.66163 0.6585 2.07923 0.738639 2.48211C0.818777 2.88499 1.01659 3.25507 1.30705 3.54553C1.59751 3.83599 1.96758 4.0338 2.37047 4.11394C2.77335 4.19408 3.19095 4.15295 3.57046 3.99575C3.94997 3.83855 4.27434 3.57235 4.50255 3.2308C4.73077 2.88925 4.85258 2.4877 4.85258 2.07692C4.85258 1.52609 4.63376 0.997815 4.24426 0.608317C3.85476 0.218818 3.32649 0 2.77565 0ZM2.77565 6.92308C2.36488 6.92308 1.96333 7.04489 1.62178 7.2731C1.28023 7.50132 1.01403 7.82569 0.856828 8.2052C0.69963 8.5847 0.6585 9.0023 0.738639 9.40519C0.818777 9.80807 1.01659 10.1781 1.30705 10.4686C1.59751 10.7591 1.96758 10.9569 2.37047 11.037C2.77335 11.1172 3.19095 11.076 3.57046 10.9188C3.94997 10.7616 4.27434 10.4954 4.50255 10.1539C4.73077 9.81233 4.85258 9.41078 4.85258 9C4.85258 8.44917 4.63376 7.92089 4.24426 7.53139C3.85476 7.14189 3.32649 6.92308 2.77565 6.92308ZM2.77565 13.8462C2.36488 13.8462 1.96333 13.968 1.62178 14.1962C1.28023 14.4244 1.01403 14.7488 0.856828 15.1283C0.69963 15.5078 0.6585 15.9254 0.738639 16.3283C0.818777 16.7311 1.01659 17.1012 1.30705 17.3917C1.59751 17.6821 1.96758 17.88 2.37047 17.9601C2.77335 18.0402 3.19095 17.9991 3.57046 17.8419C3.94997 17.6847 4.27434 17.4185 4.50255 17.077C4.73077 16.7354 4.85258 16.3339 4.85258 15.9231C4.85258 15.3722 4.63376 14.844 4.24426 14.4545C3.85476 14.065 3.32649 13.8462 2.77565 13.8462ZM22.1603 14.5385H8.31412C8.1305 14.5385 7.95441 14.6114 7.82458 14.7412C7.69475 14.8711 7.62181 15.0472 7.62181 15.2308V16.6154C7.62181 16.799 7.69475 16.9751 7.82458 17.1049C7.95441 17.2348 8.1305 17.3077 8.31412 17.3077H22.1603C22.3439 17.3077 22.52 17.2348 22.6498 17.1049C22.7796 16.9751 22.8526 16.799 22.8526 16.6154V15.2308C22.8526 15.0472 22.7796 14.8711 22.6498 14.7412C22.52 14.6114 22.3439 14.5385 22.1603 14.5385ZM22.1603 0.692308H8.31412C8.1305 0.692308 7.95441 0.765247 7.82458 0.89508C7.69475 1.02491 7.62181 1.201 7.62181 1.38462V2.76923C7.62181 2.95284 7.69475 3.12893 7.82458 3.25877C7.95441 3.3886 8.1305 3.46154 8.31412 3.46154H22.1603C22.3439 3.46154 22.52 3.3886 22.6498 3.25877C22.7796 3.12893 22.8526 2.95284 22.8526 2.76923V1.38462C22.8526 1.201 22.7796 1.02491 22.6498 0.89508C22.52 0.765247 22.3439 0.692308 22.1603 0.692308ZM22.1603 7.61538H8.31412C8.1305 7.61538 7.95441 7.68832 7.82458 7.81816C7.69475 7.94799 7.62181 8.12408 7.62181 8.30769V9.69231C7.62181 9.87592 7.69475 10.052 7.82458 10.1818C7.95441 10.3117 8.1305 10.3846 8.31412 10.3846H22.1603C22.3439 10.3846 22.52 10.3117 22.6498 10.1818C22.7796 10.052 22.8526 9.87592 22.8526 9.69231V8.30769C22.8526 8.12408 22.7796 7.94799 22.6498 7.81816C22.52 7.68832 22.3439 7.61538 22.1603 7.61538Z"/>
</symbol><symbol viewBox="0 0 24 24" id="plus" xmlns="http://www.w3.org/2000/svg">
<path d="M22.2857 9.42857H14.5714V1.71429C14.5714 0.767679 13.8038 0 12.8571 0H11.1429C10.1962 0 9.42857 0.767679 9.42857 1.71429V9.42857H1.71429C0.767679 9.42857 0 10.1962 0 11.1429V12.8571C0 13.8038 0.767679 14.5714 1.71429 14.5714H9.42857V22.2857C9.42857 23.2323 10.1962 24 11.1429 24H12.8571C13.8038 24 14.5714 23.2323 14.5714 22.2857V14.5714H22.2857C23.2323 14.5714 24 13.8038 24 12.8571V11.1429C24 10.1962 23.2323 9.42857 22.2857 9.42857Z" fill-opacity="0.5"/>
</symbol><symbol viewBox="0 0 25 20" id="telegram" xmlns="http://www.w3.org/2000/svg">
<path d="M24.3561 1.82074L20.7573 18.7927C20.4857 19.9905 19.7777 20.2887 18.7715 19.7244L13.2881 15.6837L10.6422 18.2284C10.3494 18.5212 10.1045 18.7661 9.54021 18.7661L9.93416 13.1815L20.0971 3.99813C20.539 3.60418 20.0013 3.38591 19.4104 3.77986L6.84641 11.6909L1.43753 9.99795C0.26099 9.63062 0.239695 8.82141 1.68242 8.2571L22.8388 0.106506C23.8184 -0.26083 24.6755 0.324778 24.3561 1.82074Z"/>
</symbol><symbol viewBox="0 0 19 18" id="user" xmlns="http://www.w3.org/2000/svg">
<path d="M9.42627 10.125C12.2212 10.125 14.4888 7.85742 14.4888 5.0625C14.4888 2.26758 12.2212 0 9.42627 0C6.63135 0 4.36377 2.26758 4.36377 5.0625C4.36377 7.85742 6.63135 10.125 9.42627 10.125ZM13.9263 11.25H11.9892C11.2087 11.6086 10.3403 11.8125 9.42627 11.8125C8.51221 11.8125 7.64736 11.6086 6.86338 11.25H4.92627C2.44072 11.25 0.42627 13.2645 0.42627 15.75V16.3125C0.42627 17.2441 1.18213 18 2.11377 18H16.7388C17.6704 18 18.4263 17.2441 18.4263 16.3125V15.75C18.4263 13.2645 16.4118 11.25 13.9263 11.25Z"/>
</symbol></svg>