<svg width="85" height="18" viewBox="0 0 85 18" fill="none" xmlns="http://www.w3.org/2000/svg">
<path fill-rule="evenodd" clip-rule="evenodd" d="M24.8671 17.0977V5.3955C24.8671 2.07594 23.0543 0.5 20.0101 0.5C17.4788 0.5 15.2898 1.97541 14.332 3.45063C13.7162 1.60647 12.1771 0.5 9.74853 0.5C7.21726 0.5 5.02829 2.04238 4.34405 3.01473V0.902514H0V17.0977H4.34405V6.20036C4.99404 5.29497 6.25959 4.28904 7.7645 4.28904C9.54322 4.28904 10.2273 5.36194 10.2273 6.87092V17.0977H14.6056V6.16678C15.2213 5.29496 16.4869 4.28904 18.026 4.28904C19.8047 4.28904 20.4888 5.36194 20.4888 6.87092L20.489 17.0977H24.8671ZM36.8048 17.5C31.3662 17.5 28.0824 13.6104 28.0824 8.9833C28.0824 4.38959 31.3661 0.500173 36.8048 0.500173C42.2776 0.500173 45.5614 4.38977 45.5614 8.9833C45.5614 13.6104 42.2778 17.5 36.8048 17.5ZM36.8048 13.7111C39.5069 13.7111 41.0463 11.5316 41.0463 8.9833C41.0463 6.46858 39.5071 4.28904 36.8048 4.28904C34.1025 4.28904 32.5975 6.46858 32.5975 8.9833C32.5975 11.5316 34.1026 13.7111 36.8048 13.7111ZM64.2716 17.0977V5.66374C64.2716 2.51185 62.5272 0.5 58.9014 0.5C56.1993 0.5 54.1812 1.77415 53.1208 3.01473V0.902514H48.7765V17.0977H53.1208V6.20036C53.8391 5.22801 55.1731 4.28904 56.8833 4.28904C58.7304 4.28904 59.9276 5.06032 59.9276 7.30682V17.0977H64.2716ZM76.2434 17.5C70.8048 17.5 67.521 13.6104 67.521 8.9833C67.521 4.38959 70.8047 0.500173 76.2434 0.500173C81.7162 0.500173 85 4.38977 85 8.9833C85 13.6104 81.7164 17.5 76.2434 17.5ZM76.2434 13.7111C78.9455 13.7111 80.4849 11.5316 80.4849 8.9833C80.4849 6.46858 78.9457 4.28904 76.2434 4.28904C73.5411 4.28904 72.0361 6.46858 72.0361 8.9833C72.0361 11.5316 73.5412 13.7111 76.2434 13.7111Z" fill="white"/>
</svg>
