<svg width="1894" height="1853" viewBox="0 0 1894 1853" fill="none" xmlns="http://www.w3.org/2000/svg">
<path d="M-257.462 2.1969L-94.9449 171.61L-289.715 358.408L-180.981 471.755M-150.377 149.894L-356.994 348.051L-196.814 515.031M57.2094 25.5844L249.002 225.519L178.302 293.323M35.2691 46.634L203.673 222.19L54.9577 364.816M145.834 188.734L175.066 219.203L-7.78117 394.569L-94.2981 304.375M14.3412 78.4985L144.124 213.783L-4.59118 356.41L-85.2666 272.316L-202.897 385.135L-93.5798 499.086M-1.90978 328.095L-99.5399 226.326L-240.026 361.069M180.498 118.048L343.012 287.453L148.244 474.259L256.985 587.606M287.579 265.738L80.9692 463.901L241.148 630.873M267.707 245.015L28.7859 474.161L-100.99 338.875L-149.749 385.639M205.666 495.948L405.624 304.17L473.433 374.859M226.71 517.886L402.293 349.494L544.929 498.186M368.83 407.328L399.305 378.097L574.682 560.916L484.474 647.427M258.577 538.81L393.883 409.036L536.519 557.728L452.411 638.394L565.238 756.01L679.208 646.702M508.201 555.048L406.424 652.669L541.168 793.135M298.138 372.671L467.578 210.166L654.389 404.905L767.753 296.172M445.849 265.596L644.027 472.173L811.024 312.005M425.132 285.464L654.285 524.35L518.978 654.115L565.744 702.866M-99.3597 395.814L234.799 744.147L443.61 543.88M381.905 525.25L221.516 679.074L74.72 526.047M377.122 680.77L223.796 827.827L-65.0568 526.724M1137.99 1850.74L975.479 1681.33L1170.25 1494.53L1061.52 1381.18M1030.91 1703.04L1237.52 1504.88L1077.34 1337.91M845.266 1806.3L676.863 1630.75L825.569 1488.12M734.693 1664.2L705.469 1633.73L888.308 1458.37L974.833 1548.56M866.194 1774.44L736.412 1639.16L885.126 1496.52L965.797 1580.62L1083.43 1467.8L974.116 1353.85M700.037 1734.89L537.514 1565.48L732.29 1378.68L623.55 1265.33M592.948 1587.2L799.567 1389.04L639.387 1222.06M612.827 1607.92L851.741 1378.78L981.523 1514.06L1030.28 1467.3M674.868 1356.99L474.911 1548.76L407.093 1478.08M653.825 1335.05L478.244 1503.45L335.607 1354.76M511.706 1445.62L481.23 1474.84L305.854 1292.03L396.052 1205.51M621.958 1314.12L486.652 1443.9L344.016 1295.21L428.124 1214.54L315.297 1096.93L201.319 1206.23M372.325 1297.89L474.111 1200.27L339.367 1059.8M582.396 1480.26L412.958 1642.78L226.146 1448.03L112.781 1556.76M434.687 1587.35L236.508 1380.76L69.5081 1540.93M455.403 1567.47L226.241 1328.59L361.549 1198.82L314.782 1150.07M979.895 1457.12L645.736 1108.79L436.927 1309.06M498.63 1327.68L659.013 1173.87L805.807 1326.89M503.413 1172.17L656.74 1025.11L945.593 1326.21M987.675 339.469L760.998 556.882M1002.61 325.146L1044.75 369.065L803.135 600.801L841.713 641.028M742.976 574.16L934.767 774.09L864.068 841.898M721.034 595.202L889.447 770.757L740.732 913.387M831.608 737.304L860.832 767.775L677.993 943.138L591.468 852.95M700.106 627.066L829.89 762.353L681.175 904.982L600.503 820.887L482.867 933.705L592.193 1047.66M683.857 876.671L586.228 774.902L445.741 909.642M866.264 666.619L1028.79 836.027L834.018 1022.83L942.75 1136.17M973.353 814.31L766.735 1012.47L926.913 1179.44M953.474 793.591L714.56 1022.73L584.778 887.45L536.02 934.214M1425.64 455.311L1198.95 672.726M1440.58 440.988L1482.72 484.915L1241.09 716.65L1279.68 756.87M1180.93 690.008L1372.73 889.935L1302.03 957.743M1158.99 711.051L1327.4 886.603L1178.69 1029.23M1269.57 853.151L1298.8 883.62L1115.95 1058.99L1029.43 968.794M1138.07 742.914L1267.85 878.199L1119.13 1020.83L1038.46 936.733L920.833 1049.55L1030.15 1163.5M1121.81 992.515L1024.19 890.746L883.706 1025.49M1304.23 782.464L1466.74 951.871L1271.98 1138.68L1380.71 1252.03M1411.31 930.155L1204.7 1128.32L1364.87 1295.29M1391.44 909.433L1152.52 1138.58L1022.73 1003.29L973.977 1050.06M1329.39 1160.37L1529.36 968.588L1597.16 1039.28M1350.44 1182.3L1526.02 1013.91L1668.66 1162.6M1382.31 1203.23L1517.61 1073.45L1660.25 1222.15L1576.14 1302.82L1688.97 1420.43L1802.94 1311.12M1421.87 1037.09L1591.3 874.585L1778.12 1069.32L1891.49 960.598M1118.55 362.056L1255.06 504.35L1035.54 714.883M1090.87 409.037L939.691 554.03L1047.28 666.18M878.516 612.705L1102.41 846.101L1077.46 870.032M1146.76 432.703L1215.74 504.616L1075.34 639.267M1097.63 454.083L1001.2 546.566L1048.55 595.928M1075.93 756.982L1198.06 884.294L1142.37 937.701M1204.33 418.733L1301.08 519.593L1105.44 707.229M1024.37 1060.23L1358.52 1408.57L1567.33 1208.3M1505.63 1189.67L1345.25 1343.49L1198.45 1190.47M1500.85 1345.19L1347.52 1492.25L1058.67 1191.14M1338.61 730.719L1453.21 850.185L1669.8 642.462M646.352 336.499L790.252 200.664L917.984 340.935L608.917 629.665" stroke="url(#paint0_linear_143_167)" stroke-opacity="0.07" stroke-width="5" stroke-miterlimit="10"/>
<defs>
<linearGradient id="paint0_linear_143_167" x1="2062.5" y1="1777" x2="1181.58" y2="-186.714" gradientUnits="userSpaceOnUse">
<stop stop-color="#FEA339"/>
<stop offset="0.333333" stop-color="#EB2828"/>
<stop offset="0.666667" stop-color="#F53261"/>
<stop offset="1" stop-color="#F52DED"/>
</linearGradient>
</defs>
</svg>
