<svg width="1905" height="1853" viewBox="0 0 1905 1853" fill="none" xmlns="http://www.w3.org/2000/svg">
<path d="M103.538 2.1969L266.055 171.61L71.2848 358.408L180.019 471.755M210.623 149.894L4.00611 348.051L164.186 515.031M418.209 25.5844L610.002 225.519L539.302 293.323M396.269 46.634L564.673 222.19L415.958 364.816M506.834 188.734L536.066 219.203L353.219 394.569L266.702 304.375M375.341 78.4985L505.124 213.783L356.409 356.41L275.733 272.316L158.103 385.135L267.42 499.086M359.09 328.095L261.46 226.326L120.974 361.069M541.498 118.048L704.012 287.453L509.244 474.259L617.985 587.606M648.579 265.738L441.969 463.901L602.148 630.873M628.707 245.015L389.786 474.161L260.01 338.875L211.251 385.639M566.666 495.948L766.624 304.17L834.433 374.859M587.71 517.886L763.293 349.494L905.929 498.186M729.83 407.328L760.305 378.097L935.682 560.916L845.474 647.427M619.577 538.81L754.883 409.036L897.519 557.728L813.411 638.394L926.238 756.01L1040.21 646.702M869.201 555.048L767.424 652.669L902.168 793.135M659.138 372.671L828.578 210.166L1015.39 404.905L1128.75 296.172M806.849 265.596L1005.03 472.173L1172.02 312.005M786.132 285.464L1015.29 524.35L879.978 654.115L926.744 702.866M261.64 395.814L595.799 744.147L804.61 543.88M742.905 525.25L582.516 679.074L435.72 526.047M738.122 680.77L584.796 827.827L295.943 526.724M1498.99 1850.74L1336.48 1681.33L1531.25 1494.53L1422.52 1381.18M1391.91 1703.04L1598.52 1504.88L1438.34 1337.91M1206.27 1806.3L1037.86 1630.75L1186.57 1488.12M1095.69 1664.2L1066.47 1633.73L1249.31 1458.37L1335.83 1548.56M1227.19 1774.44L1097.41 1639.16L1246.13 1496.52L1326.8 1580.62L1444.43 1467.8L1335.12 1353.85M1061.04 1734.89L898.514 1565.48L1093.29 1378.68L984.55 1265.33M953.948 1587.2L1160.57 1389.04L1000.39 1222.06M973.827 1607.92L1212.74 1378.78L1342.52 1514.06L1391.28 1467.3M1035.87 1356.99L835.911 1548.76L768.093 1478.08M1014.83 1335.05L839.244 1503.45L696.607 1354.76M872.706 1445.62L842.23 1474.84L666.854 1292.03L757.052 1205.51M982.958 1314.12L847.652 1443.9L705.016 1295.21L789.124 1214.54L676.297 1096.93L562.319 1206.23M733.325 1297.89L835.111 1200.27L700.367 1059.8M943.396 1480.26L773.958 1642.78L587.146 1448.03L473.781 1556.76M795.687 1587.35L597.508 1380.76L430.508 1540.93M816.403 1567.47L587.241 1328.59L722.549 1198.82L675.782 1150.07M1340.9 1457.12L1006.74 1108.79L797.927 1309.06M859.63 1327.68L1020.01 1173.87L1166.81 1326.89M864.413 1172.17L1017.74 1025.11L1306.59 1326.21M1348.68 339.469L1122 556.882M1363.61 325.146L1405.75 369.065L1164.13 600.801L1202.71 641.028M1103.98 574.16L1295.77 774.09L1225.07 841.898M1082.03 595.202L1250.45 770.757L1101.73 913.387M1192.61 737.304L1221.83 767.775L1038.99 943.138L952.468 852.95M1061.11 627.066L1190.89 762.353L1042.17 904.982L961.503 820.887L843.867 933.705L953.193 1047.66M1044.86 876.671L947.228 774.902L806.741 909.642M1227.26 666.619L1389.79 836.027L1195.02 1022.83L1303.75 1136.17M1334.35 814.31L1127.73 1012.47L1287.91 1179.44M1314.47 793.591L1075.56 1022.73L945.778 887.45L897.02 934.214M1786.64 455.311L1559.95 672.726M1801.58 440.988L1843.72 484.915L1602.09 716.65L1640.68 756.87M1541.93 690.008L1733.73 889.935L1663.03 957.743M1519.99 711.051L1688.4 886.603L1539.69 1029.23M1630.57 853.151L1659.8 883.62L1476.95 1058.99L1390.43 968.794M1499.07 742.914L1628.85 878.199L1480.13 1020.83L1399.46 936.733L1281.83 1049.55L1391.15 1163.5M1482.81 992.515L1385.19 890.746L1244.71 1025.49M1665.23 782.464L1827.74 951.871L1632.98 1138.68L1741.71 1252.03M1772.31 930.155L1565.7 1128.32L1725.87 1295.29M1752.44 909.433L1513.52 1138.58L1383.73 1003.29L1334.98 1050.06M1690.39 1160.37L1890.36 968.588L1958.16 1039.28M1711.44 1182.3L1887.02 1013.91L2029.66 1162.6M1743.31 1203.23L1878.61 1073.45L2021.25 1222.15L1937.14 1302.82L2049.97 1420.43L2163.94 1311.12M1782.87 1037.09L1952.3 874.585L2139.12 1069.32L2252.49 960.598M1479.55 362.056L1616.06 504.35L1396.54 714.883M1451.87 409.037L1300.69 554.03L1408.28 666.18M1239.52 612.705L1463.41 846.101L1438.46 870.032M1507.76 432.703L1576.74 504.616L1436.34 639.267M1458.63 454.083L1362.2 546.566L1409.55 595.928M1436.93 756.982L1559.06 884.294L1503.37 937.701M1565.33 418.733L1662.08 519.593L1466.44 707.229M1385.37 1060.23L1719.52 1408.57L1928.33 1208.3M1866.63 1189.67L1706.25 1343.49L1559.45 1190.47M1861.85 1345.19L1708.52 1492.25L1419.67 1191.14M1699.61 730.719L1814.21 850.185L2030.8 642.462M1007.35 336.499L1151.25 200.664L1278.98 340.935L969.917 629.665" stroke="url(#paint0_linear_69_579)" stroke-opacity="0.07" stroke-width="5" stroke-miterlimit="10"/>
<defs>
<linearGradient id="paint0_linear_69_579" x1="12.2884" y1="539.663" x2="1301.34" y2="2419.66" gradientUnits="userSpaceOnUse">
<stop stop-color="#FEA339"/>
<stop offset="0.333333" stop-color="#EB2828"/>
<stop offset="0.666667" stop-color="#F53261"/>
<stop offset="1" stop-color="#F52DED"/>
</linearGradient>
</defs>
</svg>
